<svg xmlns="http://www.w3.org/2000/svg" aria-hidden="true" style="position:absolute;width:0;height:0;overflow:hidden">
  <defs>
    <symbol id="game-icons_cursed-star" viewBox="0 0 25 25">
      <path d="m12.653.827-2.095 5.428L4.753 8.02l5.202-.206-1.779 4.61 5.016-7.236 2.452 3.145L12.653.827zm2.461 3.11 1.776 4.994-4.997-.33 8.402 2.631-2.271 3.278 6.273-5.092-5.71-.375-3.473-5.106zM9.085 8.769l-8.061.529 4.294 3.485L5.3 18.99l1.355-5.122 4.021 3.264-5.336-7.001 3.746-1.363zm3.475.927c-1.094 0-2.188 1.267-3.282 3.802 2.122 3.786 4.303 4.217 6.564 0-1.094-2.536-2.188-3.802-3.282-3.802zm.019.765c.54.421.928 1.491.928 2.756s-.388 2.335-.928 2.756c-.54-.421-.928-1.491-.928-2.756s.388-2.335.928-2.756zm4.03.518.253 8.8-3.838-1.077 6.859 4.269-1.485-5.435 3.592-5.052-4.047 3.388-1.335-4.892zm-9.141 4.11-2.129 7.793 4.829-3.004 5.891 1.925-4.419-2.843 4.253-2.646-8.36 2.76-.066-3.985z"/>
    </symbol>
    <symbol id="left" viewBox="0 0 25 25">
      <path fill="none" stroke="#fff" stroke-linecap="round" stroke-linejoin="round" stroke-width="2.5" d="m15.625 18.75-6.25-6.25 6.25-6.25" style="stroke:var(--color1, #fff)"/>
    </symbol>
    <symbol id="close" viewBox="0 0 25 25">
      <path fill="#fff" d="m6.667 19.792-1.458-1.458 5.833-5.833-5.833-5.833L6.667 5.21l5.833 5.833 5.833-5.833 1.458 1.458-5.833 5.833 5.833 5.833-1.458 1.458-5.833-5.833-5.833 5.833z" style="fill:var(--color1, #fff)"/>
    </symbol>
    <symbol id="menu" viewBox="0 0 25 25">
      <path fill="none" stroke="#fff" stroke-linecap="round" stroke-linejoin="round" stroke-width="2.5" d="M3.125 12.5h18.75M3.125 6.25h18.75m-18.75 12.5h18.75" style="stroke:var(--color1, #fff)"/>
    </symbol>
  </defs>
</svg>
