<svg aria-hidden="true" style="position: absolute; width: 0; height: 0; overflow: hidden;" version="1.1" xmlns="http://www.w3.org/2000/svg" xmlns:xlink="http://www.w3.org/1999/xlink">
<defs>
<symbol id="menu-close" viewBox="0 0 32 32">
<path fill="#fff" style="fill: var(--color1, #fff)" d="M8.533 25.333l-1.867-1.867 7.467-7.467-7.467-7.467 1.867-1.867 7.467 7.467 7.467-7.467 1.867 1.867-7.467 7.467 7.467 7.467-1.867 1.867-7.467-7.467-7.467 7.467z"></path>
</symbol>
<symbol id="menu" viewBox="0 0 32 32">
<path fill="none" stroke="#fff" style="stroke: var(--color1, #fff)" stroke-linejoin="round" stroke-linecap="round" stroke-miterlimit="4" stroke-width="3.2" d="M4 16h24M4 8h24M4 24h24"></path>
</symbol>
<symbol id="footer-vector-7" viewBox="0 0 394 32">
<path fill="none" stroke="#fff" stroke-linecap="round" stroke-linejoin="round" stroke-width="3.2" d="M4 16h24M4 8h24M4 24h24" style="stroke:var(--color1, #fff)"/>
</symbol>
<symbol id="footer-vector-7-desktop" viewBox="0 0 1477 32">
<path fill="none" stroke="#fff" stroke-linecap="round" stroke-linejoin="round" stroke-width="3.2" d="M4 16h24M4 8h24M4 24h24" style="stroke:var(--color1, #fff)"/>
</symbol>
<symbol id="footer-vector-8---desktop" viewBox="0 0 1745 32">
<path fill="none" stroke="#fff" stroke-linecap="round" stroke-linejoin="round" stroke-width="3.2" d="M4 16h24M4 8h24M4 24h24" style="stroke:var(--color1, #fff)"/>
</symbol>
<symbol id="footer-vector-8" viewBox="0 0 465 32">
<path fill="none" stroke="#fff" stroke-linecap="round" stroke-linejoin="round" stroke-width="3.2" d="M4 16h24M4 8h24M4 24h24" style="stroke:var(--color1, #fff)"/>
</symbol>
<symbol id="footer-group-14" viewBox="0 0 688 32">
<path fill="#a79561" d="M176.343 7.684C179.061 4.76 176.987 0 172.995 0H32.369a4.574 4.574 0 0 0-3.357 1.468L7.877 24.325C5.17 27.252 7.246 32 11.233 32H151.75c1.27 0 2.483-.529 3.348-1.459l21.245-22.857zM336.101 7.705c2.745-2.917.677-7.705-3.33-7.705H217.107a4.574 4.574 0 0 0-3.247 1.353L191.206 24.21c-2.86 2.886-.816 7.79 3.247 7.79h116.805c1.259 0 2.464-.52 3.328-1.438l21.515-22.857zM474.377 7.442c2.411-2.99.283-7.442-3.559-7.442h-98.167a4.566 4.566 0 0 0-3.483 1.612l-19.417 22.857c-2.523 2.969-.414 7.531 3.483 7.531h99.145a4.572 4.572 0 0 0 3.557-1.701l18.441-22.857zM589.783 7.122C591.824 4.085 589.648 0 585.989 0h-80.59c-1.481 0-2.873.72-3.73 1.93l-16.181 22.857c-2.144 3.028.021 7.213 3.73 7.213h81.403a4.574 4.574 0 0 0 3.794-2.021l15.367-22.857z" style="fill:var(--color1, #a79561)"/>
<path d="M682.299 6.737C683.938 3.691 681.732 0 678.274 0h-62.917a4.57 4.57 0 0 0-3.977 2.319l-12.944 22.857c-1.726 3.047.475 6.824 3.977 6.824h63.566c1.682 0 3.23-.924 4.027-2.406l12.293-22.857z" style="fill:var(--color2, #000)"/>
</symbol>
<symbol id="footer-group-15" viewBox="0 0 579 32">
<path fill="#a79561" d="M432.278 10.341C428.995 6.139 431.987 0 437.318 0h112.47c1.978 0 3.843.912 5.053 2.472l14.928 19.2c3.267 4.204.272 10.328-5.053 10.328H452.322a6.399 6.399 0 0 1-5.043-2.459l-15.002-19.2zM298.002 10.371C294.682 6.175 297.67 0 303.021 0h91.513c1.901 0 3.699.844 4.915 2.303l16 19.2c3.472 4.169.509 10.497-4.918 10.497h-92.317a6.401 6.401 0 0 1-5.019-2.429l-15.193-19.2zM181.373 9.992C178.491 5.742 181.535 0 186.67 0h76.978a6.4 6.4 0 0 1 5.208 2.68l13.713 19.2c3.026 4.236-.003 10.12-5.208 10.12h-77.668a6.4 6.4 0 0 1-5.297-2.808l-13.023-19.2zM83.994 9.549C81.582 5.283 84.665 0 89.566 0h62.347a6.4 6.4 0 0 1 5.5 3.127l11.428 19.2c2.539 4.266-.535 9.673-5.5 9.673h-62.922a6.402 6.402 0 0 1-5.572-3.251l-10.852-19.2z" style="fill:var(--color1, #a79561)"/><path d="M5.883 9.037C3.967 4.801 7.065 0 11.715 0H59.32a6.4 6.4 0 0 1 5.778 3.649l9.142 19.2C76.262 27.096 73.165 32 68.462 32H20.397a6.4 6.4 0 0 1-5.832-3.763l-8.682-19.2z" style="fill:var(--color2, #000)"/>
</symbol>
</defs>
</svg>
