<svg aria-hidden="true" style="position: absolute; width: 0; height: 0; overflow: hidden;" version="1.1" xmlns="http://www.w3.org/2000/svg" xmlns:xlink="http://www.w3.org/1999/xlink">
<defs>
<symbol id="menu-close" viewBox="0 0 32 32">
<path fill="#fff" style="fill: var(--color1, #fff)" d="M8.533 25.333l-1.867-1.867 7.467-7.467-7.467-7.467 1.867-1.867 7.467 7.467 7.467-7.467 1.867 1.867-7.467 7.467 7.467 7.467-1.867 1.867-7.467-7.467-7.467 7.467z"></path>
</symbol>
<symbol id="menu" viewBox="0 0 32 32">
<path fill="none" stroke="#fff" style="stroke: var(--color1, #fff)" stroke-linejoin="round" stroke-linecap="round" stroke-miterlimit="4" stroke-width="3.2" d="M4 16h24M4 8h24M4 24h24"></path>
</symbol>
<symbol id="footer-vector-7" viewBox="0 0 394 32">
<path fill="none" stroke="#fff" stroke-linecap="round" stroke-linejoin="round" stroke-width="3.2" d="M4 16h24M4 8h24M4 24h24" style="stroke:var(--color1, #fff)"/>
</symbol>
<symbol id="footer-vector-7-desktop" viewBox="0 0 1477 32">
<path fill="none" stroke="#fff" stroke-linecap="round" stroke-linejoin="round" stroke-width="3.2" d="M4 16h24M4 8h24M4 24h24" style="stroke:var(--color1, #fff)"/>
</symbol>
<symbol id="footer-vector-8---desktop" viewBox="0 0 1745 32">
<path fill="none" stroke="#fff" stroke-linecap="round" stroke-linejoin="round" stroke-width="3.2" d="M4 16h24M4 8h24M4 24h24" style="stroke:var(--color1, #fff)"/>
</symbol>
<symbol id="footer-vector-8" viewBox="0 0 465 32">
<path fill="none" stroke="#fff" stroke-linecap="round" stroke-linejoin="round" stroke-width="3.2" d="M4 16h24M4 8h24M4 24h24" style="stroke:var(--color1, #fff)"/>
</symbol>
<symbol id="footer-group-14" viewBox="0 0 688 32">
<path fill="#a79561" d="M176.343 7.684C179.061 4.76 176.987 0 172.995 0H32.369a4.574 4.574 0 0 0-3.357 1.468L7.877 24.325C5.17 27.252 7.246 32 11.233 32H151.75c1.27 0 2.483-.529 3.348-1.459l21.245-22.857zM336.101 7.705c2.745-2.917.677-7.705-3.33-7.705H217.107a4.574 4.574 0 0 0-3.247 1.353L191.206 24.21c-2.86 2.886-.816 7.79 3.247 7.79h116.805c1.259 0 2.464-.52 3.328-1.438l21.515-22.857zM474.377 7.442c2.411-2.99.283-7.442-3.559-7.442h-98.167a4.566 4.566 0 0 0-3.483 1.612l-19.417 22.857c-2.523 2.969-.414 7.531 3.483 7.531h99.145a4.572 4.572 0 0 0 3.557-1.701l18.441-22.857zM589.783 7.122C591.824 4.085 589.648 0 585.989 0h-80.59c-1.481 0-2.873.72-3.73 1.93l-16.181 22.857c-2.144 3.028.021 7.213 3.73 7.213h81.403a4.574 4.574 0 0 0 3.794-2.021l15.367-22.857z" style="fill:var(--color1, #a79561)"/>
<path d="M682.299 6.737C683.938 3.691 681.732 0 678.274 0h-62.917a4.57 4.57 0 0 0-3.977 2.319l-12.944 22.857c-1.726 3.047.475 6.824 3.977 6.824h63.566c1.682 0 3.23-.924 4.027-2.406l12.293-22.857z" style="fill:var(--color2, #000)"/>
</symbol>
<symbol id="footer-group-15" viewBox="0 0 579 32">
<path fill="#a79561" d="M432.278 10.341C428.995 6.139 431.987 0 437.318 0h112.47c1.978 0 3.843.912 5.053 2.472l14.928 19.2c3.267 4.204.272 10.328-5.053 10.328H452.322a6.399 6.399 0 0 1-5.043-2.459l-15.002-19.2zM298.002 10.371C294.682 6.175 297.67 0 303.021 0h91.513c1.901 0 3.699.844 4.915 2.303l16 19.2c3.472 4.169.509 10.497-4.918 10.497h-92.317a6.401 6.401 0 0 1-5.019-2.429l-15.193-19.2zM181.373 9.992C178.491 5.742 181.535 0 186.67 0h76.978a6.4 6.4 0 0 1 5.208 2.68l13.713 19.2c3.026 4.236-.003 10.12-5.208 10.12h-77.668a6.4 6.4 0 0 1-5.297-2.808l-13.023-19.2zM83.994 9.549C81.582 5.283 84.665 0 89.566 0h62.347a6.4 6.4 0 0 1 5.5 3.127l11.428 19.2c2.539 4.266-.535 9.673-5.5 9.673h-62.922a6.402 6.402 0 0 1-5.572-3.251l-10.852-19.2z" style="fill:var(--color1, #a79561)"/><path d="M5.883 9.037C3.967 4.801 7.065 0 11.715 0H59.32a6.4 6.4 0 0 1 5.778 3.649l9.142 19.2C76.262 27.096 73.165 32 68.462 32H20.397a6.4 6.4 0 0 1-5.832-3.763l-8.682-19.2z" style="fill:var(--color2, #000)"/>

</symbol>
<symbol id="decor" viewBox="0 0 882 25">
<path fill="#a79561" style="fill: var(--color1, #a79561)" d="M0.367 0.735c0-0.203 0.165-0.368 0.368-0.368h289.87c0.857 0 1.682 0.333 2.299 0.928l16.57 15.997c0.479 0.463 1.121 0.722 1.787 0.722h260.597c0.649 0 1.274-0.245 1.75-0.687l17.324-16.076c0.613-0.568 1.416-0.883 2.251-0.883h289.171c0.206 0 0.368 0.165 0.368 0.368s-0.162 0.368-0.368 0.368h-289.171c-0.649 0-1.274 0.245-1.75 0.687l-17.324 16.076c-0.613 0.568-1.416 0.883-2.251 0.883h-260.597c-0.857 0-1.682-0.333-2.299-0.928l-16.57-15.997c-0.479-0.463-1.121-0.722-1.788-0.722h-289.87c-0.203 0-0.368-0.165-0.368-0.368z"></path>
<path fill="#fff" style="fill: var(--color2, #fff)" d="M-0.368 9.559c0-0.203 0.165-0.368 0.368-0.368h293.043c0.863 0 1.693 0.338 2.311 0.941l13.347 13.032c0.481 0.469 1.126 0.732 1.798 0.732h261.396c0.651 0 1.277-0.247 1.754-0.69l14.101-13.129c0.613-0.57 1.418-0.887 2.254-0.887h292.349c0.206 0 0.368 0.165 0.368 0.368s-0.162 0.368-0.368 0.368h-292.349c-0.651 0-1.277 0.247-1.754 0.69l-14.101 13.129c-0.613 0.57-1.418 0.887-2.254 0.887h-261.396c-0.863 0-1.693-0.338-2.311-0.941l-13.347-13.032c-0.481-0.469-1.126-0.732-1.798-0.732h-293.043c-0.203 0-0.368-0.165-0.368-0.368z"></path>
<path fill="#a79561" style="fill: var(--color1, #a79561)" d="M245.477 16.442c-0.874-0.941-0.207-2.472 1.077-2.472h45.238c0.41 0 0.801 0.171 1.079 0.472l6.799 7.353c0.871 0.942 0.203 2.469-1.080 2.469h-45.203c-0.408 0-0.799-0.17-1.076-0.469l-6.835-7.353z"></path>
<path fill="#a79561" style="fill: var(--color1, #a79561)" d="M194.085 16.449c-0.883-0.938-0.218-2.479 1.071-2.479h37.209c0.392 0 0.768 0.157 1.044 0.435l7.288 7.353c0.92 0.928 0.263 2.506-1.045 2.506h-37.575c-0.405 0-0.793-0.167-1.071-0.463l-6.921-7.353z"></path>
<path fill="#a79561" style="fill: var(--color1, #a79561)" d="M149.602 16.365c-0.776-0.962-0.091-2.394 1.145-2.394h31.579c0.432 0 0.841 0.19 1.121 0.518l6.246 7.353c0.812 0.955 0.133 2.423-1.121 2.423h-31.893c-0.445 0-0.865-0.201-1.145-0.547l-5.932-7.353z"></path>
<path fill="#a79561" style="fill: var(--color1, #a79561)" d="M112.477 16.262c-0.657-0.977 0.043-2.291 1.221-2.291h25.925c0.477 0 0.924 0.231 1.2 0.621l5.205 7.353c0.69 0.974-0.007 2.32-1.2 2.32h-26.187c-0.49 0-0.947-0.244-1.221-0.65l-4.943-7.353z"></path>
<path fill="#000" style="fill: var(--color3, #000)" d="M82.715 16.138c-0.527-0.98 0.182-2.167 1.295-2.167h20.24c0.529 0 1.018 0.285 1.279 0.746l4.164 7.353c0.555 0.98-0.153 2.195-1.279 2.195h-20.449c-0.541 0-1.039-0.297-1.296-0.774l-3.954-7.353z"></path>
<path fill="#a79561" style="fill: var(--color1, #a79561)" d="M637.61 16.442c0.874-0.941 0.207-2.472-1.077-2.472h-45.238c-0.41 0-0.801 0.171-1.079 0.472l-6.799 7.353c-0.871 0.942-0.203 2.469 1.080 2.469h45.203c0.409 0 0.799-0.17 1.077-0.469l6.834-7.353z"></path>
<path fill="#a79561" style="fill: var(--color1, #a79561)" d="M689.003 16.449c0.883-0.938 0.218-2.479-1.071-2.479h-37.208c-0.392 0-0.768 0.157-1.044 0.435l-7.288 7.353c-0.92 0.928-0.263 2.506 1.045 2.506h37.575c0.405 0 0.793-0.167 1.071-0.463l6.921-7.353z"></path>
<path fill="#a79561" style="fill: var(--color1, #a79561)" d="M733.485 16.365c0.776-0.962 0.091-2.394-1.145-2.394h-31.579c-0.432 0-0.841 0.19-1.121 0.518l-6.246 7.353c-0.812 0.955-0.133 2.423 1.121 2.423h31.893c0.445 0 0.865-0.201 1.145-0.547l5.932-7.353z"></path>
<path fill="#a79561" style="fill: var(--color1, #a79561)" d="M770.61 16.262c0.654-0.977-0.044-2.291-1.221-2.291h-25.926c-0.478 0-0.919 0.231-1.199 0.621l-5.206 7.353c-0.691 0.974 0.007 2.32 1.199 2.32h26.191c0.485 0 0.949-0.244 1.221-0.65l4.941-7.353z"></path>
<path fill="#000" style="fill: var(--color3, #000)" d="M800.375 16.138c0.522-0.98-0.184-2.167-1.301-2.167h-20.235c-0.529 0-1.022 0.285-1.279 0.746l-4.162 7.353c-0.559 0.98 0.147 2.195 1.279 2.195h20.449c0.537 0 1.037-0.297 1.294-0.774l3.956-7.353z"></path>
</symbol>

<symbol id="Vect7" viewBox="0 0 1154 25">
<path fill="none" stroke="#fff" style="stroke: var(--color1, #fff)" stroke-linejoin="round" stroke-linecap="round" stroke-miterlimit="4" stroke-width="2.5" d="M3.125 12.5h18.75M3.125 6.25h18.75M3.125 18.75h18.75"></path>
</symbol>

<symbol id="Vector7Stroke" viewBox="0 0 1154 25">
<path fill="#a79561" style="fill: var(--color1, #a79561)" d="M0.48 0.962c0-0.266 0.215-0.481 0.481-0.481h379.062c1.121 0 2.199 0.435 3.006 1.214l21.668 20.919c0.627 0.606 1.465 0.944 2.337 0.944h340.781c0.849 0 1.666-0.321 2.288-0.899l22.654-21.023c0.8-0.743 1.852-1.155 2.943-1.155h378.146c0.269 0 0.481 0.215 0.481 0.481s-0.212 0.481-0.481 0.481h-378.146c-0.849 0-1.666 0.321-2.289 0.899l-22.653 21.023c-0.801 0.743-1.852 1.155-2.943 1.155h-340.781c-1.121 0-2.199-0.435-3.006-1.214l-21.668-20.919c-0.627-0.606-1.465-0.944-2.338-0.944h-379.062c-0.266 0-0.481-0.215-0.481-0.481z"></path>
</symbol>

<symbol id="Polygon16" viewBox="0 0 134 25">
<path d="M0 12.5l8.553-12.5h117.763l7.895 12.5-7.895 12.5h-117.763l-8.553-12.5z"></path>
</symbol>
</defs>
</svg>
