<svg aria-hidden="true" style="position: absolute; width: 0; height: 0; overflow: hidden;" version="1.1" xmlns="http://www.w3.org/2000/svg" xmlns:xlink="http://www.w3.org/1999/xlink">
<defs>
<symbol id="menu-close" viewBox="0 0 32 32">
<path fill="#fff" style="fill: var(--color1, #fff)" d="M8.533 25.333l-1.867-1.867 7.467-7.467-7.467-7.467 1.867-1.867 7.467 7.467 7.467-7.467 1.867 1.867-7.467 7.467 7.467 7.467-1.867 1.867-7.467-7.467-7.467 7.467z"></path>
</symbol>
<symbol id="menu" viewBox="0 0 32 32">
<path fill="none" stroke="#fff" style="stroke: var(--color1, #fff)" stroke-linejoin="round" stroke-linecap="round" stroke-miterlimit="4" stroke-width="3.2" d="M4 16h24M4 8h24M4 24h24"></path>
</symbol>
<symbol id="footer-vector-7" viewBox="0 0 320 26">
  <path style="stroke: var(--decor-dackground, #A79561); stroke-width: 0.5px;"
        stroke-linecap="round"
        fill="none"
        d="M0 1h239.769c1.371 0 2.646.702 3.379 1.86l12.841 20.28a4.002 4.002 0 0 0 3.38 1.86H320"/>
</symbol>
<symbol id="footer-vector-8-desktop" viewBox="0 0 1200 22">
<path stroke="#fff" stroke-linecap="round" d="M0 1h398.538a4 4 0 0 1 2.794 1.138l18.152 17.724A3.999 3.999 0 0 0 422.278 21h355.499a3.999 3.999 0 0 0 2.725-1.072l19.179-17.856A3.999 3.999 0 0 1 802.406 1H1200"/>
</symbol>
<symbol id="footer-vector-7-desktop" viewBox="0 0 1200 26">
<path stroke="#A79561" stroke-linecap="round" d="M1 1h394.223c1.037 0 2.033.402 2.779 1.122l22.535 21.756A3.997 3.997 0 0 0 423.315 25h354.412a4.001 4.001 0 0 0 2.721-1.068l23.56-21.864A3.997 3.997 0 0 1 806.728 1H1200"/>
</symbol>
<symbol id="footer-vector-8" viewBox="0 0 320 22">
<path stroke="#fff" stroke-linecap="round" stroke-width=".5" d="M0 1h240.786a4 4 0 0 1 3.397 1.888l10.09 16.225A4 4 0 0 0 257.67 21H320"/>
</symbol>
<symbol id="footer-group-15" viewBox="0 0 181 10">
<path fill="#A79561" d="M135.087 3.231C134.061 1.918 134.996 0 136.662 0h35.147c.618 0 1.201.285 1.579.773l4.665 6c1.021 1.313.085 3.227-1.579 3.227h-35.123a2 2 0 0 1-1.576-.769l-4.688-6ZM93.126 3.241C92.088 1.93 93.022 0 94.694 0h28.598c.594 0 1.156.264 1.536.72l5 6c1.085 1.302.159 3.28-1.537 3.28h-28.85a2 2 0 0 1-1.567-.759l-4.748-6ZM56.679 3.123c-.9-1.328.05-3.123 1.655-3.123H82.39a2 2 0 0 1 1.627.838l4.285 6c.946 1.323 0 3.162-1.627 3.162H62.404a2 2 0 0 1-1.655-.877l-4.07-6ZM26.248 2.984C25.495 1.651 26.458 0 27.99 0h19.484a2 2 0 0 1 1.718.977l3.572 6C53.556 8.31 52.595 10 51.043 10H31.382a2 2 0 0 1-1.741-1.016l-3.392-6Z"/><path fill="url(#a)" d="M1.838 2.824A2 2 0 0 1 3.661 0h14.876a2 2 0 0 1 1.806 1.14l2.857 6A2 2 0 0 1 21.394 10H6.374a2 2 0 0 1-1.822-1.176l-2.714-6Z"/><defs><linearGradient id="a" x1="20.362" x2=".562" y1="5" y2="5" gradientUnits="userSpaceOnUse"><stop stop-color="#A79561"/><stop offset="1" stop-color="#DBCC9F" stop-opacity=".2"/></linearGradient></defs>
</symbol>
<symbol id="footer-group-15-desktop" viewBox="0 0 301 14">
<path fill="#A79561" d="M223.849 3.362C222.66 2.082 223.567 0 225.314 0h61.524a2 2 0 0 1 1.468.642l9.247 10c1.184 1.28.276 3.358-1.469 3.358h-61.476a2.003 2.003 0 0 1-1.465-.638l-9.294-10ZM153.955 3.37c-1.201-1.276-.296-3.37 1.457-3.37h50.603c.533 0 1.045.213 1.42.592l9.912 10c1.251 1.263.357 3.408-1.421 3.408h-51.102a2 2 0 0 1-1.456-.63l-9.413-10ZM93.46 3.256C92.403 1.948 93.334 0 95.015 0h42.948a2 2 0 0 1 1.524.705l8.495 10c1.104 1.3.181 3.295-1.524 3.295h-43.375a2 2 0 0 1-1.557-.744l-8.068-10ZM42.969 3.116C42.076 1.787 43.028 0 44.629 0h35.258a2 2 0 0 1 1.632.844l7.08 10c.937 1.325-.01 3.156-1.633 3.156H51.352a2 2 0 0 1-1.66-.884l-6.723-10Z"/><path fill="url(#a)" d="M2.493 2.947C1.776 1.615 2.74 0 4.254 0H31.78a2 2 0 0 1 1.74 1.014l5.663 10c.755 1.334-.208 2.986-1.74 2.986H9.633a2 2 0 0 1-1.762-1.053l-5.378-10Z"/><defs><linearGradient id="a" x1="33.88" x2=".908" y1="7" y2="7" gradientUnits="userSpaceOnUse"><stop stop-color="#A79561"/><stop offset="1" stop-color="#DBCC9F" stop-opacity=".2"/></linearGradient></defs>
</symbol>
<symbol id="footer-group-14-desktop" viewBox="0 0 301 14">
<path fill="#A79561" d="M77.15 3.362C78.34 2.082 77.432 0 75.685 0H14.161a2 2 0 0 0-1.468.642l-9.247 10C2.262 11.922 3.17 14 4.915 14H66.39a2 2 0 0 0 1.465-.638l9.294-10ZM147.044 3.37c1.201-1.276.296-3.37-1.457-3.37H94.984a2 2 0 0 0-1.42.592l-9.911 10C82.4 11.855 83.294 14 85.073 14h51.102a2 2 0 0 0 1.456-.63l9.413-10ZM207.54 3.256c1.055-1.308.124-3.256-1.557-3.256h-42.948a2 2 0 0 0-1.524.705l-8.495 10c-1.104 1.3-.181 3.295 1.524 3.295h43.376a2 2 0 0 0 1.556-.744l8.068-10ZM258.03 3.116c.893-1.329-.059-3.116-1.66-3.116h-35.258a2 2 0 0 0-1.632.844l-7.079 10c-.938 1.325.009 3.156 1.632 3.156h35.614c.666 0 1.288-.332 1.66-.884l6.723-10Z"/><path fill="url(#a)" d="M298.506 2.947c.717-1.332-.248-2.947-1.761-2.947h-27.526a2 2 0 0 0-1.74 1.014l-5.663 10c-.755 1.334.208 2.986 1.74 2.986h27.81c.736 0 1.413-.404 1.762-1.053l5.378-10Z"/><defs><linearGradient id="a" x1="267.119" x2="300.091" y1="7" y2="7" gradientUnits="userSpaceOnUse"><stop stop-color="#A79561"/><stop offset="1" stop-color="#DBCC9F" stop-opacity=".2"/></linearGradient></defs>
</symbol>
</defs>
</svg>

